<?xml version="1.0" encoding="UTF-8" standalone="no"?>
<!-- Created with Inkscape (http://www.inkscape.org/) -->

<svg
   xmlns:dc="http://purl.org/dc/elements/1.1/"
   xmlns:cc="http://creativecommons.org/ns#"
   xmlns:rdf="http://www.w3.org/1999/02/22-rdf-syntax-ns#"
   xmlns:svg="http://www.w3.org/2000/svg"
   xmlns="http://www.w3.org/2000/svg"
   xmlns:sodipodi="http://sodipodi.sourceforge.net/DTD/sodipodi-0.dtd"
   xmlns:inkscape="http://www.inkscape.org/namespaces/inkscape"
   width="138.42857"
   height="138.42857"
   id="svg3006"
   version="1.1"
   inkscape:version="0.48.5 r10040"
   sodipodi:docname="New document 2">
  <defs
     id="defs3008" />
  <sodipodi:namedview
     id="base"
     pagecolor="#ffffff"
     bordercolor="#666666"
     borderopacity="1.0"
     inkscape:pageopacity="0.0"
     inkscape:pageshadow="2"
     inkscape:zoom="1.4"
     inkscape:cx="231.77437"
     inkscape:cy="-115.12422"
     inkscape:document-units="px"
     inkscape:current-layer="layer1"
     showgrid="false"
     fit-margin-top="5"
     fit-margin-left="5"
     fit-margin-right="5"
     fit-margin-bottom="5"
     inkscape:window-width="1908"
     inkscape:window-height="1156"
     inkscape:window-x="0"
     inkscape:window-y="0"
     inkscape:window-maximized="0" />
  <metadata
     id="metadata3011">
    <rdf:RDF>
      <cc:Work
         rdf:about="">
        <dc:format>image/svg+xml</dc:format>
        <dc:type
           rdf:resource="http://purl.org/dc/dcmitype/StillImage" />
        <dc:title></dc:title>
      </cc:Work>
    </rdf:RDF>
  </metadata>
  <g
     inkscape:label="Layer 1"
     inkscape:groupmode="layer"
     id="layer1"
     transform="translate(-302.83295,-456.9668)">
    <g
       style="display:inline"
       id="g3869"
       transform="translate(-157.77568,-8.1486124)">
      <g
         transform="translate(148.93006,1.7889497)"
         id="g3863">
        <path
           sodipodi:type="arc"
           style="fill:#ffffff;fill-opacity:1;stroke:#000000;stroke-width:2;stroke-opacity:1"
           id="path3821"
           sodipodi:cx="382.5"
           sodipodi:cy="529.86218"
           sodipodi:rx="63.214287"
           sodipodi:ry="63.214287"
           d="m 445.71429,529.86218 c 0,34.91229 -28.302,63.21429 -63.21429,63.21429 -34.91229,0 -63.21429,-28.302 -63.21429,-63.21429 0,-34.91228 28.302,-63.21428 63.21429,-63.21428 34.91229,0 63.21429,28.302 63.21429,63.21428 z"
           transform="translate(-1.6071429,2.6785714)" />
        <path
           style="fill:#000000;fill-opacity:1;stroke:none"
           d="m 380.90625,469.3125 c -32.48177,0 -59.244,24.50361 -62.8125,56.03125 0.36295,1.63959 0.68472,2.96403 0.84375,3.625 1.13179,4.704 4.13076,9.70957 6.0625,13.75 1.93174,4.04043 2.41645,5.08512 9.09375,11.4375 6.6773,6.35238 20.63486,4.291 32.27189,5.14314 5.47772,0.40112 15.10336,5.17489 20.43583,7.50255 5.33248,2.32765 8.03206,1.65575 8.35439,1.12723 0.32233,-0.52853 -3.49761,-1.65319 -6.17852,-4.97382 -1.98883,-2.46341 -3.62141,-4.31497 -5.87058,-6.39398 -2.24917,-2.079 -8.45051,-4.90512 -8.45051,-4.90512 -4.01359,-1.70007 -6.34111,-6.80059 -5.5625,-10 0,0 4.04968,8.28198 4.84375,6.40625 -0.11318,-4.57978 5.33975,-7.84275 5.34375,-7.84375 -0.43286,2.81715 -2.02834,5.16806 -1.69724,10.47566 0,0 3.81179,1.12707 6.84038,4.03499 2.44169,2.3444 3.16956,4.243 5.49369,6.80126 1.80484,1.98665 5.29575,4.66932 5.58379,4.59246 0.28805,-0.0769 0.76854,-8.70076 7.58814,-11.76626 6.7605,-3.03895 13.09896,1.32024 13.11751,0.30126 0.0186,-1.01898 -4.14646,-3.61578 -6.20752,-9.09562 -2.31832,-6.16382 -6.79018,-17.12947 -9.46875,-20.34375 -2.67858,-3.21429 -3.87332,-2.64028 -9.625,-6.96875 -9.28807,-6.98979 -6.8125,-19.8125 -6.8125,-19.8125 0,0 4.9133,3.61528 16.09375,1.4375 8.64946,-1.68478 13.18553,-11.65824 12.5,-12.6875 -0.80655,-1.21096 -4.88015,1.28688 -9.72849,0.70697 -4.13638,-0.49476 -14.47156,-13.16726 -19.14651,-18.48822 -0.96491,-0.0437 -1.93054,-0.0937 -2.90625,-0.0937 z m -29.25,30.65625 c 2.03618,-0.0101 4.67026,0.38734 5.53125,0.84375 0.75785,0.4017 2.64137,1.79715 -0.53125,1.28125 -3.43791,-0.55905 -4.77976,-0.44079 -6.40625,0.1875 -2.05086,0.79222 -2.31534,3.48685 -2.40625,4.125 -0.0909,0.63815 -0.70982,3.14732 -1.78125,0.46875 0.14546,-4.49845 2.02219,-6.31029 3.84375,-6.75 0.45539,-0.10993 1.07127,-0.15287 1.75,-0.15625 z m 4.40625,8.09375 c 1.87382,0 3.40625,1.53243 3.40625,3.40625 0,1.87382 -1.53243,3.40625 -3.40625,3.40625 -1.87382,0 -3.59862,-1.92376 -3.59862,-3.79758 0,-1.87382 1.7248,-3.01492 3.59862,-3.01492 z"
           id="path3051"
           inkscape:connector-curvature="0"
           sodipodi:nodetypes="ccssssszszcccccsszszssscssscccccssccscsssss" />
        <path
           style="fill:#000000;fill-opacity:1;stroke:none"
           d="m 409.1875,554.5 c -1.84304,0.011 -9.36189,0.51336 -11.5625,8.03125 -2.48307,8.48289 0.78125,8.6116 3.28125,8.96875 2.5,0.35714 4.79911,-0.9241 7.65625,-1.28125 2.85714,-0.35714 5.73661,1.24107 8.59375,1.0625 2.85714,-0.17857 4.79911,-4.46428 5.15625,-8.75 0.35714,-4.28571 -7.18304,-7.85268 -12.71875,-8.03125 0,0 -0.14296,-0.002 -0.40625,0 z m -4.71875,8.21875 c 1.28209,0 2.3125,1.18853 2.3125,2.47062 0,1.28209 -1.03041,2.18563 -2.3125,2.18563 -1.28209,0 -2.15438,-1.3779 -2.15438,-2.65999 0,-1.28209 0.87229,-1.99626 2.15438,-1.99626 z m 11.88249,0.1875 c 1.18347,0 1.49251,1.03041 1.49251,2.3125 0,1.28209 -0.94153,2.3125 -2.125,2.3125 -1.18347,0 -2.15625,-1.03041 -2.15625,-2.3125 0,-1.28209 1.60527,-2.3125 2.78874,-2.3125 z"
           id="path3823"
           inkscape:connector-curvature="0"
           sodipodi:nodetypes="csssssccssssssssss" />
        <path
           sodipodi:type="arc"
           style="fill:#1f1a17;fill-opacity:1;stroke:#000000;stroke-width:2;stroke-opacity:1"
           id="path3842"
           sodipodi:cx="355.93332"
           sodipodi:cy="510.87231"
           sodipodi:rx="0.63248926"
           sodipodi:ry="0.71155041"
           d="m 356.56581,510.87231 c 0,0.39298 -0.28318,0.71155 -0.63249,0.71155 -0.34932,0 -0.63249,-0.31857 -0.63249,-0.71155 0,-0.39297 0.28317,-0.71155 0.63249,-0.71155 0.34931,0 0.63249,0.31858 0.63249,0.71155 z"
           transform="matrix(0.96870291,0,0,0.67755254,12.026959,166.29679)" />
      </g>
    </g>
  </g>
</svg>
